<svg><line style="stroke: rgb(100, 100, 100); stroke-width: 1" x1="35" y1="270" x2="35" y2="20"></line><text x="277" y="290">Y</text><text x="277" y="260">1</text><line style="stroke: rgb(100, 100, 100); stroke-width: 1" x1="35" y1="270" x2="285" y2="270"></line><text x="15" y="28">Z</text><text x="43" y="28">1</text><text x="20" y="285">0</text><line style="stroke: rgb(100, 100, 100); stroke-width: 1" x1="285" y1="270" x2="275" y2="265"></line><line style="stroke: rgb(100, 100, 100); stroke-width: 1" x1="285" y1="270" x2="275" y2="275"></line><line style="stroke: rgb(100, 100, 100); stroke-width: 1" x1="35" y1="20" x2="30" y2="30"></line><line style="stroke: rgb(100, 100, 100); stroke-width: 1" x1="35" y1="20" x2="40" y2="30"></line><line style="stroke: rgb(100, 100, 100); stroke-width: 1" x1="350" y1="270" x2="350" y2="20"></line><text x="592" y="290">X</text><text x="592" y="260">1</text><line style="stroke: rgb(100, 100, 100); stroke-width: 1" x1="350" y1="270" x2="600" y2="270"></line><text x="330" y="28">Z</text><text x="358" y="28">1</text><text x="335" y="285">0</text><line style="stroke: rgb(100, 100, 100); stroke-width: 1" x1="600" y1="270" x2="590" y2="265"></line><line style="stroke: rgb(100, 100, 100); stroke-width: 1" x1="600" y1="270" x2="590" y2="275"></line><line style="stroke: rgb(100, 100, 100); stroke-width: 1" x1="350" y1="20" x2="345" y2="30"></line><line style="stroke: rgb(100, 100, 100); stroke-width: 1" x1="350" y1="20" x2="355" y2="30"></line><line style="stroke: rgb(100, 100, 100); stroke-width: 1" x1="35" y1="350" x2="285" y2="350"></line><text x="277" y="370">Y</text><text x="277" y="340">1</text><line style="stroke: rgb(100, 100, 100); stroke-width: 1" x1="35" y1="350" x2="35" y2="600"></line><text x="15" y="592">X</text><text x="43" y="592">1</text><text x="20" y="365">0</text><line style="stroke: rgb(100, 100, 100); stroke-width: 1" x1="35" y1="600" x2="40" y2="590"></line><line style="stroke: rgb(100, 100, 100); stroke-width: 1" x1="35" y1="600" x2="30" y2="590"></line><line style="stroke: rgb(100, 100, 100); stroke-width: 1" x1="285" y1="350" x2="275" y2="345"></line><line style="stroke: rgb(100, 100, 100); stroke-width: 1" x1="285" y1="350" x2="275" y2="355"></line><line style="stroke: rgb(100, 100, 100); stroke-width: 1" x1="475" y1="450" x2="475" y2="350"></line><text x="461" y="354">Z</text><text x="478" y="354">1</text><line style="stroke: rgb(100, 100, 100); stroke-width: 1" x1="475" y1="450" x2="575" y2="532"></line><text x="571" y="550">Y</text><text x="564" y="515">1</text><line style="stroke: rgb(100, 100, 100); stroke-width: 1" x1="475" y1="450" x2="375" y2="532"></line><text x="371" y="550">X</text><text x="364" y="515">1</text><text x="471" y="466">0</text><line style="stroke: rgb(100, 100, 100); stroke-width: 1" x1="475" y1="350" x2="470" y2="359.1"></line><line style="stroke: rgb(100, 100, 100); stroke-width: 1" x1="475" y1="350" x2="480" y2="359.1"></line><line style="stroke: rgb(100, 100, 100); stroke-width: 1" x1="375" y1="532" x2="385" y2="532"></line><line style="stroke: rgb(100, 100, 100); stroke-width: 1" x1="375" y1="532" x2="375" y2="523.8"></line><line style="stroke: rgb(100, 100, 100); stroke-width: 1" x1="575" y1="532" x2="565" y2="532"></line><line style="stroke: rgb(100, 100, 100); stroke-width: 1" x1="575" y1="532" x2="575" y2="523.8"></line><line style="stroke: rgb(100, 100, 100); stroke-width: 1" x1="35" y1="169" x2="94.75" y2="270"></line><line style="stroke: rgb(100, 100, 100); stroke-width: 1" x1="419.25" y1="169" x2="583.5" y2="270"></line><line style="stroke: rgb(100, 100, 100); stroke-width: 1" x1="35" y1="419.25" x2="94.75" y2="583.5"></line><line style="stroke: rgb(100, 100, 100); stroke-width: 1" x1="447.3" y1="432.314" x2="405.5" y2="546.186"></line><line style="stroke: rgb(100, 100, 100); stroke-width: 1" x1="94.75" y1="270" x2="285" y2="270"></line><line style="stroke: rgb(100, 100, 100); stroke-width: 1" x1="583.5" y1="270" x2="514.5" y2="270"></line><line style="stroke: rgb(100, 100, 100); stroke-width: 1" x1="94.75" y1="583.5" x2="285" y2="514.5"></line><line style="stroke: rgb(100, 100, 100); stroke-width: 1" x1="405.5" y1="546.186" x2="509.2" y2="585.956"></line><line style="stroke: rgb(100, 100, 100); stroke-width: 1" x1="285" y1="270" x2="225.25" y2="169"></line><line style="stroke: rgb(100, 100, 100); stroke-width: 1" x1="514.5" y1="270" x2="350" y2="169"></line><line style="stroke: rgb(100, 100, 100); stroke-width: 1" x1="285" y1="514.5" x2="225.25" y2="350"></line><line style="stroke: rgb(100, 100, 100); stroke-width: 1" x1="509.2" y1="585.956" x2="551.1" y2="472.002"></line><line style="stroke: rgb(100, 100, 100); stroke-width: 1" x1="225.25" y1="169" x2="194.5" y2="44.24999999999997"></line><line style="stroke: rgb(100, 100, 100); stroke-width: 1" x1="350" y1="169" x2="561.75" y2="44.24999999999997"></line><line style="stroke: rgb(100, 100, 100); stroke-width: 1" x1="225.25" y1="350" x2="194.5" y2="561.75"></line><line style="stroke: rgb(100, 100, 100); stroke-width: 1" x1="551.1" y1="472.002" x2="454.1" y2="481.46999999999997"></line><line style="stroke: rgb(100, 100, 100); stroke-width: 1" x1="285" y1="270" x2="194.5" y2="44.24999999999997"></line><line style="stroke: rgb(100, 100, 100); stroke-width: 1" x1="514.5" y1="270" x2="561.75" y2="44.24999999999997"></line><line style="stroke: rgb(100, 100, 100); stroke-width: 1" x1="285" y1="514.5" x2="194.5" y2="561.75"></line><line style="stroke: rgb(100, 100, 100); stroke-width: 1" x1="509.2" y1="585.956" x2="454.1" y2="481.46999999999997"></line><line style="stroke: rgb(100, 100, 100); stroke-width: 1" x1="35" y1="169" x2="194.5" y2="44.24999999999997"></line><line style="stroke: rgb(100, 100, 100); stroke-width: 1" x1="419.25" y1="169" x2="561.75" y2="44.24999999999997"></line><line style="stroke: rgb(100, 100, 100); stroke-width: 1" x1="35" y1="419.25" x2="194.5" y2="561.75"></line><line style="stroke: rgb(100, 100, 100); stroke-width: 1" x1="447.3" y1="432.314" x2="454.1" y2="481.46999999999997"></line><line style="stroke: rgb(100, 100, 100); stroke-width: 1" x1="94.75" y1="270" x2="194.5" y2="44.24999999999997"></line><line style="stroke: rgb(100, 100, 100); stroke-width: 1" x1="583.5" y1="270" x2="561.75" y2="44.24999999999997"></line><line style="stroke: rgb(100, 100, 100); stroke-width: 1" x1="94.75" y1="583.5" x2="194.5" y2="561.75"></line><line style="stroke: rgb(100, 100, 100); stroke-width: 1" x1="405.5" y1="546.186" x2="454.1" y2="481.46999999999997"></line><line style="stroke: rgb(100, 100, 100); stroke-width: 1" x1="225.25" y1="169" x2="35" y2="169"></line><line style="stroke: rgb(100, 100, 100); stroke-width: 1" x1="350" y1="169" x2="419.25" y2="169"></line><line style="stroke: rgb(100, 100, 100); stroke-width: 1" x1="225.25" y1="350" x2="35" y2="419.25"></line><line style="stroke: rgb(100, 100, 100); stroke-width: 1" x1="551.1" y1="472.002" x2="447.3" y2="432.314"></line></svg>